<svg xmlns="http://www.w3.org/2000/svg" xmlns:xlink="http://www.w3.org/1999/xlink" width="361" zoomAndPan="magnify" viewBox="0 0 270.75 64.499998" height="86" preserveAspectRatio="xMidYMid meet" version="1.2"><defs><clipPath id="66e21f0639"><path d="M 17.011719 0.757812 L 81.480469 0.757812 L 81.480469 31 L 17.011719 31 Z M 17.011719 0.757812 "/></clipPath><clipPath id="fb82020bc6"><path d="M 25.882812 15 L 65 15 L 65 63.96875 L 25.882812 63.96875 Z M 25.882812 15 "/></clipPath><clipPath id="be4d5b5a51"><path d="M 60 51.378906 L 72.855469 51.378906 L 72.855469 63.96875 L 60 63.96875 Z M 60 51.378906 "/></clipPath><clipPath id="74ed25035e"><path d="M 50 41.464844 L 72.855469 41.464844 L 72.855469 63.96875 L 50 63.96875 Z M 50 41.464844 "/></clipPath><clipPath id="54ce5c3b6f"><path d="M 40 31.027344 L 72.855469 31.027344 L 72.855469 63.96875 L 40 63.96875 Z M 40 31.027344 "/></clipPath></defs><g id="d4d78272cf"><g clip-rule="nonzero" clip-path="url(#66e21f0639)"><path style=" stroke:none;fill-rule:nonzero;fill:#004aad;fill-opacity:1;" d="M 80.285156 24.851562 L 51.261719 1.464844 C 50.082031 0.519531 48.40625 0.519531 47.238281 1.464844 L 34.875 11.425781 L 34.875 4.460938 C 34.875 4.023438 34.515625 3.660156 34.074219 3.660156 L 26.71875 3.660156 C 26.269531 3.660156 25.917969 4.023438 25.917969 4.460938 L 25.917969 18.636719 L 18.203125 24.84375 C 16.820312 25.960938 16.609375 27.988281 17.730469 29.363281 L 17.734375 29.367188 C 18.847656 30.734375 20.855469 30.941406 22.226562 29.835938 L 49.25 8.078125 L 76.269531 29.839844 C 77.640625 30.945312 79.644531 30.734375 80.757812 29.371094 C 81.882812 27.996094 81.671875 25.964844 80.285156 24.851562 "/></g><g clip-rule="nonzero" clip-path="url(#fb82020bc6)"><path style=" stroke:none;fill-rule:nonzero;fill:#004aad;fill-opacity:1;" d="M 35.679688 61.164062 C 36.90625 44.800781 49.027344 31.246094 64.71875 27.808594 L 49.246094 15.347656 L 25.910156 34.128906 L 25.910156 63.96875 L 36.078125 63.96875 C 35.742188 63.078125 35.605469 62.117188 35.679688 61.164062 "/></g><g clip-rule="nonzero" clip-path="url(#be4d5b5a51)"><path style=" stroke:none;fill-rule:nonzero;fill:#0cc0df;fill-opacity:1;" d="M 69.769531 51.757812 C 67.496094 52.273438 65.414062 53.421875 63.722656 55.109375 C 62.039062 56.800781 60.890625 58.882812 60.371094 61.15625 C 60.042969 62.59375 61.136719 63.96875 62.609375 63.96875 L 62.691406 63.96875 C 63.785156 63.96875 64.683594 63.183594 64.9375 62.121094 C 65.273438 60.726562 65.984375 59.449219 67.023438 58.410156 C 68.0625 57.371094 69.339844 56.660156 70.734375 56.328125 C 71.796875 56.074219 72.578125 55.175781 72.578125 54.082031 L 72.578125 54 C 72.582031 52.523438 71.207031 51.429688 69.769531 51.757812 "/></g><g clip-rule="nonzero" clip-path="url(#74ed25035e)"><path style=" stroke:none;fill-rule:nonzero;fill:#0cc0df;fill-opacity:1;" d="M 70.527344 46.429688 C 71.699219 46.292969 72.578125 45.300781 72.578125 44.121094 C 72.578125 42.714844 71.34375 41.636719 69.949219 41.800781 C 59.742188 43.003906 51.617188 51.128906 50.414062 61.335938 C 50.25 62.730469 51.328125 63.964844 52.734375 63.964844 C 53.914062 63.964844 54.902344 63.085938 55.042969 61.914062 C 55.058594 61.761719 55.082031 61.605469 55.105469 61.453125 C 56.210938 53.730469 62.332031 47.601562 70.066406 46.492188 C 70.21875 46.46875 70.371094 46.449219 70.527344 46.429688 "/></g><g clip-rule="nonzero" clip-path="url(#54ce5c3b6f)"><path style=" stroke:none;fill-rule:nonzero;fill:#0cc0df;fill-opacity:1;" d="M 70.136719 36.140625 C 70.230469 36.132812 70.324219 36.121094 70.417969 36.113281 C 71.632812 36.019531 72.578125 35.015625 72.578125 33.792969 C 72.578125 32.445312 71.441406 31.359375 70.101562 31.460938 C 54.089844 32.667969 41.273438 45.488281 40.070312 61.492188 C 39.96875 62.832031 41.058594 63.964844 42.402344 63.964844 C 43.625 63.964844 44.632812 63.015625 44.722656 61.796875 C 44.730469 61.707031 44.738281 61.617188 44.746094 61.53125 C 45.921875 48.070312 56.683594 37.308594 70.136719 36.140625 "/></g><g style="fill:#004aad;fill-opacity:1;"><g transform="translate(78.964348, 40.11024)"><path style="stroke:none" d="M 3.53125 0 L 3.53125 -26.921875 L 9.65625 -26.921875 L 10.25 -23.28125 C 11.125 -24.582031 12.273438 -25.617188 13.703125 -26.390625 C 15.128906 -27.171875 16.785156 -27.5625 18.671875 -27.5625 C 22.828125 -27.5625 25.773438 -25.953125 27.515625 -22.734375 C 28.492188 -24.222656 29.804688 -25.398438 31.453125 -26.265625 C 33.097656 -27.128906 34.894531 -27.5625 36.84375 -27.5625 C 40.351562 -27.5625 43.046875 -26.507812 44.921875 -24.40625 C 46.804688 -22.3125 47.75 -19.238281 47.75 -15.1875 L 47.75 0 L 40.8125 0 L 40.8125 -14.546875 C 40.8125 -16.859375 40.367188 -18.628906 39.484375 -19.859375 C 38.597656 -21.085938 37.226562 -21.703125 35.375 -21.703125 C 33.5 -21.703125 31.988281 -21.015625 30.84375 -19.640625 C 29.707031 -18.265625 29.140625 -16.347656 29.140625 -13.890625 L 29.140625 0 L 22.1875 0 L 22.1875 -14.546875 C 22.1875 -16.859375 21.734375 -18.628906 20.828125 -19.859375 C 19.929688 -21.085938 18.539062 -21.703125 16.65625 -21.703125 C 14.8125 -21.703125 13.316406 -21.015625 12.171875 -19.640625 C 11.035156 -18.265625 10.46875 -16.347656 10.46875 -13.890625 L 10.46875 0 Z M 3.53125 0 "/></g></g><g style="fill:#004aad;fill-opacity:1;"><g transform="translate(127.095074, 40.11024)"><path style="stroke:none" d="M 6.890625 11.9375 L 13.125 -1.796875 L 11.5 -1.796875 L 1.03125 -26.921875 L 8.578125 -26.921875 L 16.109375 -7.984375 L 23.984375 -26.921875 L 31.359375 -26.921875 L 14.265625 11.9375 Z M 6.890625 11.9375 "/></g></g><g style="fill:#004aad;fill-opacity:1;"><g transform="translate(156.776503, 40.11024)"><path style="stroke:none" d="M 3.6875 0 L 3.6875 -37.984375 L 10.640625 -37.984375 L 28.484375 -11.234375 L 28.484375 -37.984375 L 35.4375 -37.984375 L 35.4375 0 L 28.484375 0 L 10.640625 -26.703125 L 10.640625 0 Z M 3.6875 0 "/></g></g><g style="fill:#004aad;fill-opacity:1;"><g transform="translate(193.1865, 40.11024)"><path style="stroke:none" d="M 16.609375 0.65625 C 13.890625 0.65625 11.476562 0.078125 9.375 -1.078125 C 7.28125 -2.242188 5.632812 -3.875 4.4375 -5.96875 C 3.25 -8.0625 2.65625 -10.484375 2.65625 -13.234375 C 2.65625 -16.023438 3.242188 -18.503906 4.421875 -20.671875 C 5.597656 -22.847656 7.222656 -24.539062 9.296875 -25.75 C 11.378906 -26.957031 13.832031 -27.5625 16.65625 -27.5625 C 19.300781 -27.5625 21.632812 -26.984375 23.65625 -25.828125 C 25.6875 -24.671875 27.269531 -23.085938 28.40625 -21.078125 C 29.550781 -19.078125 30.125 -16.84375 30.125 -14.375 C 30.125 -13.976562 30.113281 -13.5625 30.09375 -13.125 C 30.070312 -12.695312 30.046875 -12.25 30.015625 -11.78125 L 9.546875 -11.78125 C 9.691406 -9.675781 10.425781 -8.023438 11.75 -6.828125 C 13.070312 -5.640625 14.671875 -5.046875 16.546875 -5.046875 C 17.960938 -5.046875 19.148438 -5.363281 20.109375 -6 C 21.066406 -6.632812 21.78125 -7.457031 22.25 -8.46875 L 29.296875 -8.46875 C 28.796875 -6.769531 27.957031 -5.222656 26.78125 -3.828125 C 25.601562 -2.429688 24.15625 -1.332031 22.4375 -0.53125 C 20.71875 0.257812 18.773438 0.65625 16.609375 0.65625 Z M 16.65625 -21.921875 C 14.957031 -21.921875 13.457031 -21.441406 12.15625 -20.484375 C 10.851562 -19.523438 10.019531 -18.066406 9.65625 -16.109375 L 23.0625 -16.109375 C 22.957031 -17.890625 22.304688 -19.300781 21.109375 -20.34375 C 19.910156 -21.394531 18.425781 -21.921875 16.65625 -21.921875 Z M 16.65625 -21.921875 "/></g></g><g style="fill:#004aad;fill-opacity:1;"><g transform="translate(222.922192, 40.11024)"><path style="stroke:none" d="M 15.515625 0 C 12.691406 0 10.429688 -0.6875 8.734375 -2.0625 C 7.035156 -3.4375 6.1875 -5.878906 6.1875 -9.390625 L 6.1875 -21.109375 L 1.578125 -21.109375 L 1.578125 -26.921875 L 6.1875 -26.921875 L 7 -34.140625 L 13.125 -34.140625 L 13.125 -26.921875 L 20.40625 -26.921875 L 20.40625 -21.109375 L 13.125 -21.109375 L 13.125 -9.328125 C 13.125 -8.023438 13.40625 -7.128906 13.96875 -6.640625 C 14.53125 -6.160156 15.5 -5.921875 16.875 -5.921875 L 20.234375 -5.921875 L 20.234375 0 Z M 15.515625 0 "/></g></g><g style="fill:#272a76;fill-opacity:1;"><g transform="translate(80.697482, 62.0266)"><path style="stroke:none" d="M 4.625 0 L 3.875 -1.921875 L 1.453125 -1.921875 L 0.71875 0 L 0 0 L 2.390625 -6.078125 L 2.984375 -6.078125 L 5.359375 0 Z M 3.65625 -2.5625 L 2.953125 -4.421875 C 2.859375 -4.660156 2.765625 -4.953125 2.671875 -5.296875 C 2.609375 -5.035156 2.523438 -4.742188 2.421875 -4.421875 L 1.703125 -2.5625 Z M 3.65625 -2.5625 "/></g></g><g style="fill:#272a76;fill-opacity:1;"><g transform="translate(91.178108, 62.0266)"><path style="stroke:none" d="M 5.203125 0 L 4.375 0 L 2.171875 -2.9375 L 1.53125 -2.375 L 1.53125 0 L 0.828125 0 L 0.828125 -6.046875 L 1.53125 -6.046875 L 1.53125 -3.046875 L 4.28125 -6.046875 L 5.109375 -6.046875 L 2.671875 -3.421875 Z M 5.203125 0 "/></g></g><g style="fill:#272a76;fill-opacity:1;"><g transform="translate(101.497365, 62.0266)"><path style="stroke:none" d="M 4.25 -1.609375 C 4.25 -1.078125 4.050781 -0.660156 3.65625 -0.359375 C 3.269531 -0.0664062 2.75 0.078125 2.09375 0.078125 C 1.375 0.078125 0.820312 -0.0078125 0.4375 -0.1875 L 0.4375 -0.875 C 0.6875 -0.769531 0.957031 -0.6875 1.25 -0.625 C 1.539062 -0.5625 1.832031 -0.53125 2.125 -0.53125 C 2.582031 -0.53125 2.929688 -0.617188 3.171875 -0.796875 C 3.410156 -0.972656 3.53125 -1.222656 3.53125 -1.546875 C 3.53125 -1.753906 3.488281 -1.921875 3.40625 -2.046875 C 3.320312 -2.179688 3.179688 -2.304688 2.984375 -2.421875 C 2.785156 -2.535156 2.484375 -2.664062 2.078125 -2.8125 C 1.515625 -3.007812 1.113281 -3.242188 0.875 -3.515625 C 0.632812 -3.796875 0.515625 -4.160156 0.515625 -4.609375 C 0.515625 -5.078125 0.6875 -5.445312 1.03125 -5.71875 C 1.382812 -5.988281 1.851562 -6.125 2.4375 -6.125 C 3.03125 -6.125 3.582031 -6.015625 4.09375 -5.796875 L 3.875 -5.1875 C 3.375 -5.394531 2.890625 -5.5 2.421875 -5.5 C 2.046875 -5.5 1.753906 -5.421875 1.546875 -5.265625 C 1.335938 -5.109375 1.234375 -4.882812 1.234375 -4.59375 C 1.234375 -4.382812 1.269531 -4.210938 1.34375 -4.078125 C 1.414062 -3.953125 1.546875 -3.832031 1.734375 -3.71875 C 1.921875 -3.601562 2.203125 -3.476562 2.578125 -3.34375 C 3.210938 -3.113281 3.648438 -2.867188 3.890625 -2.609375 C 4.128906 -2.359375 4.25 -2.023438 4.25 -1.609375 Z M 4.25 -1.609375 "/></g></g><g style="fill:#272a76;fill-opacity:1;"><g transform="translate(111.266315, 62.0266)"><path style="stroke:none" d="M 4.203125 0 L 0.828125 0 L 0.828125 -6.046875 L 4.203125 -6.046875 L 4.203125 -5.421875 L 1.53125 -5.421875 L 1.53125 -3.46875 L 4.046875 -3.46875 L 4.046875 -2.859375 L 1.53125 -2.859375 L 1.53125 -0.625 L 4.203125 -0.625 Z M 4.203125 0 "/></g></g><g style="fill:#272a76;fill-opacity:1;"><g transform="translate(121.097329, 62.0266)"><path style="stroke:none" d="M 4.25 -1.609375 C 4.25 -1.078125 4.050781 -0.660156 3.65625 -0.359375 C 3.269531 -0.0664062 2.75 0.078125 2.09375 0.078125 C 1.375 0.078125 0.820312 -0.0078125 0.4375 -0.1875 L 0.4375 -0.875 C 0.6875 -0.769531 0.957031 -0.6875 1.25 -0.625 C 1.539062 -0.5625 1.832031 -0.53125 2.125 -0.53125 C 2.582031 -0.53125 2.929688 -0.617188 3.171875 -0.796875 C 3.410156 -0.972656 3.53125 -1.222656 3.53125 -1.546875 C 3.53125 -1.753906 3.488281 -1.921875 3.40625 -2.046875 C 3.320312 -2.179688 3.179688 -2.304688 2.984375 -2.421875 C 2.785156 -2.535156 2.484375 -2.664062 2.078125 -2.8125 C 1.515625 -3.007812 1.113281 -3.242188 0.875 -3.515625 C 0.632812 -3.796875 0.515625 -4.160156 0.515625 -4.609375 C 0.515625 -5.078125 0.6875 -5.445312 1.03125 -5.71875 C 1.382812 -5.988281 1.851562 -6.125 2.4375 -6.125 C 3.03125 -6.125 3.582031 -6.015625 4.09375 -5.796875 L 3.875 -5.1875 C 3.375 -5.394531 2.890625 -5.5 2.421875 -5.5 C 2.046875 -5.5 1.753906 -5.421875 1.546875 -5.265625 C 1.335938 -5.109375 1.234375 -4.882812 1.234375 -4.59375 C 1.234375 -4.382812 1.269531 -4.210938 1.34375 -4.078125 C 1.414062 -3.953125 1.546875 -3.832031 1.734375 -3.71875 C 1.921875 -3.601562 2.203125 -3.476562 2.578125 -3.34375 C 3.210938 -3.113281 3.648438 -2.867188 3.890625 -2.609375 C 4.128906 -2.359375 4.25 -2.023438 4.25 -1.609375 Z M 4.25 -1.609375 "/></g></g><g style="fill:#272a76;fill-opacity:1;"><g transform="translate(130.866279, 62.0266)"><path style="stroke:none" d=""/></g></g><g style="fill:#272a76;fill-opacity:1;"><g transform="translate(138.185739, 62.0266)"><path style="stroke:none" d="M 2.6875 0 L 1.984375 0 L 1.984375 -5.421875 L 0.078125 -5.421875 L 0.078125 -6.046875 L 4.609375 -6.046875 L 4.609375 -5.421875 L 2.6875 -5.421875 Z M 2.6875 0 "/></g></g><g style="fill:#272a76;fill-opacity:1;"><g transform="translate(147.991928, 62.0266)"><path style="stroke:none" d="M 4.625 0 L 3.875 -1.921875 L 1.453125 -1.921875 L 0.71875 0 L 0 0 L 2.390625 -6.078125 L 2.984375 -6.078125 L 5.359375 0 Z M 3.65625 -2.5625 L 2.953125 -4.421875 C 2.859375 -4.660156 2.765625 -4.953125 2.671875 -5.296875 C 2.609375 -5.035156 2.523438 -4.742188 2.421875 -4.421875 L 1.703125 -2.5625 Z M 3.65625 -2.5625 "/></g></g><g style="fill:#272a76;fill-opacity:1;"><g transform="translate(158.472554, 62.0266)"><path style="stroke:none" d="M 5.546875 0 L 4.75 0 L 1.453125 -5.078125 L 1.421875 -5.078125 C 1.460938 -4.484375 1.484375 -3.9375 1.484375 -3.4375 L 1.484375 0 L 0.828125 0 L 0.828125 -6.046875 L 1.625 -6.046875 L 4.921875 -1 L 4.953125 -1 C 4.953125 -1.070312 4.941406 -1.304688 4.921875 -1.703125 C 4.898438 -2.109375 4.890625 -2.398438 4.890625 -2.578125 L 4.890625 -6.046875 L 5.546875 -6.046875 Z M 5.546875 0 "/></g></g><g style="fill:#272a76;fill-opacity:1;"><g transform="translate(169.979316, 62.0266)"><path style="stroke:none" d="M 4.671875 -4.28125 C 4.671875 -3.664062 4.457031 -3.191406 4.03125 -2.859375 C 3.613281 -2.535156 3.019531 -2.375 2.25 -2.375 L 1.53125 -2.375 L 1.53125 0 L 0.828125 0 L 0.828125 -6.046875 L 2.390625 -6.046875 C 3.910156 -6.046875 4.671875 -5.457031 4.671875 -4.28125 Z M 1.53125 -2.984375 L 2.171875 -2.984375 C 2.785156 -2.984375 3.234375 -3.082031 3.515625 -3.28125 C 3.796875 -3.476562 3.9375 -3.800781 3.9375 -4.25 C 3.9375 -4.644531 3.804688 -4.941406 3.546875 -5.140625 C 3.285156 -5.335938 2.875 -5.4375 2.3125 -5.4375 L 1.53125 -5.4375 Z M 1.53125 -2.984375 "/></g></g><g style="fill:#272a76;fill-opacity:1;"><g transform="translate(180.19927, 62.0266)"><path style="stroke:none" d="M 4.625 0 L 3.875 -1.921875 L 1.453125 -1.921875 L 0.71875 0 L 0 0 L 2.390625 -6.078125 L 2.984375 -6.078125 L 5.359375 0 Z M 3.65625 -2.5625 L 2.953125 -4.421875 C 2.859375 -4.660156 2.765625 -4.953125 2.671875 -5.296875 C 2.609375 -5.035156 2.523438 -4.742188 2.421875 -4.421875 L 1.703125 -2.5625 Z M 3.65625 -2.5625 "/></g></g><g style="fill:#272a76;fill-opacity:1;"><g transform="translate(190.679896, 62.0266)"><path style="stroke:none" d=""/></g></g><g style="fill:#272a76;fill-opacity:1;"><g transform="translate(197.999356, 62.0266)"><path style="stroke:none" d="M 0.828125 -6.046875 L 2.53125 -6.046875 C 3.34375 -6.046875 3.925781 -5.925781 4.28125 -5.6875 C 4.632812 -5.445312 4.8125 -5.066406 4.8125 -4.546875 C 4.8125 -4.191406 4.710938 -3.894531 4.515625 -3.65625 C 4.316406 -3.425781 4.023438 -3.273438 3.640625 -3.203125 L 3.640625 -3.171875 C 4.554688 -3.015625 5.015625 -2.53125 5.015625 -1.71875 C 5.015625 -1.175781 4.832031 -0.753906 4.46875 -0.453125 C 4.101562 -0.148438 3.59375 0 2.9375 0 L 0.828125 0 Z M 1.53125 -3.453125 L 2.6875 -3.453125 C 3.1875 -3.453125 3.546875 -3.53125 3.765625 -3.6875 C 3.984375 -3.84375 4.09375 -4.109375 4.09375 -4.484375 C 4.09375 -4.816406 3.96875 -5.054688 3.71875 -5.203125 C 3.476562 -5.359375 3.09375 -5.4375 2.5625 -5.4375 L 1.53125 -5.4375 Z M 1.53125 -2.859375 L 1.53125 -0.59375 L 2.796875 -0.59375 C 3.285156 -0.59375 3.648438 -0.6875 3.890625 -0.875 C 4.140625 -1.070312 4.265625 -1.367188 4.265625 -1.765625 C 4.265625 -2.140625 4.140625 -2.414062 3.890625 -2.59375 C 3.640625 -2.769531 3.253906 -2.859375 2.734375 -2.859375 Z M 1.53125 -2.859375 "/></g></g><g style="fill:#272a76;fill-opacity:1;"><g transform="translate(208.608249, 62.0266)"><path style="stroke:none" d="M 4.625 0 L 3.875 -1.921875 L 1.453125 -1.921875 L 0.71875 0 L 0 0 L 2.390625 -6.078125 L 2.984375 -6.078125 L 5.359375 0 Z M 3.65625 -2.5625 L 2.953125 -4.421875 C 2.859375 -4.660156 2.765625 -4.953125 2.671875 -5.296875 C 2.609375 -5.035156 2.523438 -4.742188 2.421875 -4.421875 L 1.703125 -2.5625 Z M 3.65625 -2.5625 "/></g></g><g style="fill:#272a76;fill-opacity:1;"><g transform="translate(219.088874, 62.0266)"><path style="stroke:none" d="M 2.6875 0 L 1.984375 0 L 1.984375 -5.421875 L 0.078125 -5.421875 L 0.078125 -6.046875 L 4.609375 -6.046875 L 4.609375 -5.421875 L 2.6875 -5.421875 Z M 2.6875 0 "/></g></g><g style="fill:#272a76;fill-opacity:1;"><g transform="translate(228.895063, 62.0266)"><path style="stroke:none" d="M 4.625 0 L 3.875 -1.921875 L 1.453125 -1.921875 L 0.71875 0 L 0 0 L 2.390625 -6.078125 L 2.984375 -6.078125 L 5.359375 0 Z M 3.65625 -2.5625 L 2.953125 -4.421875 C 2.859375 -4.660156 2.765625 -4.953125 2.671875 -5.296875 C 2.609375 -5.035156 2.523438 -4.742188 2.421875 -4.421875 L 1.703125 -2.5625 Z M 3.65625 -2.5625 "/></g></g><g style="fill:#272a76;fill-opacity:1;"><g transform="translate(239.375688, 62.0266)"><path style="stroke:none" d="M 4.25 -1.609375 C 4.25 -1.078125 4.050781 -0.660156 3.65625 -0.359375 C 3.269531 -0.0664062 2.75 0.078125 2.09375 0.078125 C 1.375 0.078125 0.820312 -0.0078125 0.4375 -0.1875 L 0.4375 -0.875 C 0.6875 -0.769531 0.957031 -0.6875 1.25 -0.625 C 1.539062 -0.5625 1.832031 -0.53125 2.125 -0.53125 C 2.582031 -0.53125 2.929688 -0.617188 3.171875 -0.796875 C 3.410156 -0.972656 3.53125 -1.222656 3.53125 -1.546875 C 3.53125 -1.753906 3.488281 -1.921875 3.40625 -2.046875 C 3.320312 -2.179688 3.179688 -2.304688 2.984375 -2.421875 C 2.785156 -2.535156 2.484375 -2.664062 2.078125 -2.8125 C 1.515625 -3.007812 1.113281 -3.242188 0.875 -3.515625 C 0.632812 -3.796875 0.515625 -4.160156 0.515625 -4.609375 C 0.515625 -5.078125 0.6875 -5.445312 1.03125 -5.71875 C 1.382812 -5.988281 1.851562 -6.125 2.4375 -6.125 C 3.03125 -6.125 3.582031 -6.015625 4.09375 -5.796875 L 3.875 -5.1875 C 3.375 -5.394531 2.890625 -5.5 2.421875 -5.5 C 2.046875 -5.5 1.753906 -5.421875 1.546875 -5.265625 C 1.335938 -5.109375 1.234375 -4.882812 1.234375 -4.59375 C 1.234375 -4.382812 1.269531 -4.210938 1.34375 -4.078125 C 1.414062 -3.953125 1.546875 -3.832031 1.734375 -3.71875 C 1.921875 -3.601562 2.203125 -3.476562 2.578125 -3.34375 C 3.210938 -3.113281 3.648438 -2.867188 3.890625 -2.609375 C 4.128906 -2.359375 4.25 -2.023438 4.25 -1.609375 Z M 4.25 -1.609375 "/></g></g></g></svg>